# xmcd
#
# Track frame offsets:
#	150
#	15230
#	28533
#	43181
#	55809
#	71955
#	85893
#	103357
#	120010
#	136159
#	152996
#	168306
#	182249
#	196069
#	212351
#	229398
#	244465
#	260770
#	275421
#	289924
#	304330
#	321030
#	337882
#
# Disc length: 4722 seconds
#
# Revision: 1
# Processed by: cddbd v1.5.2PL0 Copyright (c) Steve Scherf et al.
# Submitted via: audiograbber 1.83.01
#
DISCID=4f127017
DTITLE=Various Artist - Tanecni liga 136
DYEAR=1900
DGENRE=
TTITLE0=LMFAO - Sexy And I Know It (Album Version)
TTITLE1=Swedish House Mafia - Antidote (Radio Edit)
TTITLE2=Inna - Endless (Radio Edit)
TTITLE3=Mike Candys - Around The World (Radio Mix)
TTITLE4=Deepside Deejays - Never Be Alone (Radio Edit)
TTITLE5=Hardwell - Cobra (Oficial Energy Anthem 2012) (Radio Edit)
TTITLE6=Belmond and Parker - Mad World (Scotty Remix)
TTITLE7=Aqua - Like A Robot (Radio Edit)
TTITLE8=Claudia - Just A Little Bit (Spencer and Hill Airplay Edit)
TTITLE9=Jennifer Lopez - Papi (Album Version)
TTITLE10=Pitbull - U Know It Ain't Love (David May Radio Mix)
TTITLE11=DJ Sammy - Look For Love (Radio Edit)
TTITLE12=Jasper Forks - River Flows In You 2012 (Radio Edit)
TTITLE13=Scotty - Feel Alive (Radio Edit)
TTITLE14=Mario Lopez - I Can Stand It (Move Town Radio Edit)
TTITLE15=Hitmakers - Restless (STFU Remix Edit)
TTITLE16=Oakenfold - Maybe It's Over (Perfecto Radio Mix)
TTITLE17=Plastic Funk - Discofunk (Radio Edit)
TTITLE18=Tom Novy - Thelma and Louise (Radio Edit)
TTITLE19=Caitlyn - Una Noche Mas (Radio Edit)
TTITLE20=karmin Shiff - Ole Ola (I Am From Brazil) (Dani B. and Dark Angel Radio 
TTITLE20=Remix)
TTITLE21=Lady Gaga - You And I (10 Kings Remix Radio Edit)
TTITLE22=Serenity and Spyer - Club Rockin Beats (Hanz Up Radio Edit)
EXTD=
EXTT0=
EXTT1=
EXTT2=
EXTT3=
EXTT4=
EXTT5=
EXTT6=
EXTT7=
EXTT8=
EXTT9=
EXTT10=
EXTT11=
EXTT12=
EXTT13=
EXTT14=
EXTT15=
EXTT16=
EXTT17=
EXTT18=
EXTT19=
EXTT20=
EXTT21=
EXTT22=
PLAYORDER=
